<svg width="24" height="24" viewBox="0 0 24 24" fill="none" xmlns="http://www.w3.org/2000/svg">
<path d="M24 12C24 18.6564 22.6156 24 20.8932 24C19.5088 24 18.3484 20.6213 17.9372 15.8962C17.526 20.6213 16.3244 24 14.9766 24C13.6288 24 12.4317 20.6213 12.016 15.8962C11.6048 20.6213 10.4078 24 9.05996 24C7.71216 24 6.47401 20.6213 6.10393 15.8962C5.69274 20.6213 4.49114 24 3.10679 24C1.38435 24 0 18.6564 0 12C0 5.34362 1.38435 0 3.10679 0C4.49114 0 5.68817 3.37868 6.10393 8.13745C6.47858 3.37868 7.67561 0 9.05996 0C10.4443 0 11.6048 3.37868 12.016 8.13745C12.4272 3.37868 13.5877 0 14.9766 0C16.3655 0 17.5214 3.37868 17.9372 8.13745C18.3484 3.37868 19.5088 0 20.8932 0C22.6156 0 24 5.38149 24 12Z" fill="#3D3935"/>
</svg>
