<svg width="30" height="30" viewBox="0 0 30 30" fill="none" xmlns="http://www.w3.org/2000/svg">
<g clip-path="url(#clip0_234_2754)">
<path d="M28.3477 30C29.2582 30 30 29.2582 30 28.3477V1.6523C30 0.741851 29.2582 0 28.3477 0H1.6523C0.741851 0 0 0.741851 0 1.6523V28.3365C0 29.2469 0.741851 29.9888 1.6523 29.9888H28.3477V30Z" fill="#3C5A99"/>
<path d="M20.7042 30V18.3777H24.6045L25.189 13.8479H20.7042V10.9592C20.7042 9.64406 21.0639 8.75609 22.9522 8.75609H25.3464V4.70963C24.9305 4.65343 23.503 4.52979 21.8507 4.52979C18.3887 4.52979 16.0283 6.64294 16.0283 10.5096V13.8479H12.1167V18.3777H16.0283V30H20.7042Z" fill="white"/>
</g>
<defs>
<clipPath id="clip0_234_2754">
<rect width="30" height="30" fill="white"/>
</clipPath>
</defs>
</svg>
