<svg width="30" height="30" viewBox="0 0 30 30" fill="none" xmlns="http://www.w3.org/2000/svg">
<g clip-path="url(#clip0_234_2741)">
<path d="M6.25002 15.1192C6.25002 14.1367 6.41419 13.1951 6.70752 12.3117L1.56669 8.4209C0.532618 10.5022 -0.00370669 12.7952 1.92817e-05 15.1192C1.92817e-05 17.5259 0.562519 19.7959 1.56419 21.8109L6.70252 17.9142C6.40266 17.0129 6.2496 16.0692 6.24919 15.1192" fill="#FBBC05"/>
<path d="M15.2794 6.18583C17.3277 6.18167 19.3144 6.885 20.9044 8.1775L25.3486 3.77917C22.6402 1.44417 19.1669 0 15.2794 0C9.24189 0 4.05189 3.4225 1.56689 8.42083L6.71106 12.3125C7.89523 8.74833 11.2719 6.185 15.2811 6.185" fill="#EA4335"/>
<path d="M15.3443 23.8532C11.3151 23.8532 7.92181 21.3066 6.73014 17.7649L1.56348 21.6316C4.06014 26.6007 9.27514 29.9999 15.3443 29.9999C19.0885 29.9999 22.6635 28.6974 25.3476 26.2557L20.4418 22.5399C19.0585 23.3941 17.316 23.8541 15.3435 23.8541" fill="#34A853"/>
<path d="M29.9998 14.9766C29.9998 14.0883 29.8598 13.1316 29.6506 12.2441H15.3423V18.0491H23.5781C23.1673 20.0291 22.0473 21.55 20.4423 22.54L25.3473 26.2558C28.1665 23.6916 29.9998 19.8741 29.9998 14.9766Z" fill="#4285F4"/>
</g>
<defs>
<clipPath id="clip0_234_2741">
<rect width="30" height="30" fill="white"/>
</clipPath>
</defs>
</svg>
