<svg width="30" height="30" viewBox="0 0 30 30" fill="none" xmlns="http://www.w3.org/2000/svg">
<g clip-path="url(#clip0_234_2758)">
<path d="M6.69839 29.8832H10.2651L4.63672 26.2766L0.0117188 23.5732C0.112774 25.2789 0.861015 26.8816 2.10369 28.0543C3.34636 29.227 4.98976 29.8811 6.69839 29.8832Z" fill="#F6DF93"/>
<path d="M19.5783 27.8217L15.55 26.7917H6.69833C5.74206 26.7908 4.8252 26.4105 4.14901 25.7343C3.47282 25.0581 3.09255 24.1413 3.09167 23.185V21.2067L1.545 19.5483L0 19.8217V23.185C0 23.315 0.00500001 23.445 0.0116667 23.5733L10.265 29.8833H22.4483L19.5783 27.8217Z" fill="#F39D53"/>
<path d="M25.7765 25.6882C25.4411 26.0373 25.0387 26.315 24.5933 26.5046C24.1479 26.6942 23.6689 26.7918 23.1848 26.7916H15.5498L22.4498 29.8832H23.1848C24.3275 29.8827 25.4511 29.59 26.4488 29.0328C27.4464 28.4756 28.285 27.6725 28.8848 26.6999L27.3065 25.7599L25.7765 25.6882Z" fill="#EB5D4B"/>
<path d="M26.7916 19.0284V23.1851C26.7916 24.1568 26.4032 25.0401 25.7749 25.6884L28.8849 26.7001C29.5182 25.6784 29.8832 24.4735 29.8832 23.1851V19.5184L28.2832 18.6201L26.7916 19.0284Z" fill="#D7515E"/>
<path d="M29.8832 8.70661L28.2365 8.31494L26.7915 9.18161V19.0283L29.8832 19.5183V8.70661Z" fill="#E84F8C"/>
<path d="M29.8831 6.6984C29.8812 5.09043 29.3018 3.53664 28.2504 2.32004C27.199 1.10344 25.7455 0.304971 24.1548 0.0700684L20.1031 1.75674L18.0498 3.09007H23.1848C25.1731 3.09007 26.7915 4.71007 26.7915 6.6984V9.18174L29.8831 8.70674V6.70007V6.6984Z" fill="#BB368E"/>
<path d="M18.5449 1.8323e-06L14.7115 1.43834L11.6865 3.09167H18.0499L24.1549 0.0700018C23.8331 0.0231565 23.5083 -0.000238463 23.1832 1.8323e-06H18.5432H18.5449Z" fill="#82318A"/>
<path d="M14.9415 23.6999C16.0132 23.6999 17.0415 23.5066 17.9882 23.1516L12.9682 20.8732L7.64648 19.7849C8.445 20.9889 9.52898 21.9766 10.8018 22.6599C12.0747 23.3433 13.4968 23.7012 14.9415 23.7016V23.6999Z" fill="#EB5D4B"/>
<path d="M19.21 17.8217C18.739 18.5211 18.1035 19.0941 17.3593 19.4905C16.615 19.8869 15.7849 20.0945 14.9417 20.095C12.5917 20.095 10.605 18.5117 9.98835 16.355L8.60501 15.4917L6.22168 15.7567C6.35501 17.1967 6.84501 18.5817 7.64668 19.785L17.9883 23.1517C19.0947 22.7384 20.1065 22.1066 20.9635 21.2939C21.8205 20.4813 22.5051 19.5045 22.9767 18.4217L21.1233 17.4817L19.21 17.8217Z" fill="#D7515E"/>
<path d="M9.78853 14.9418C9.78853 13.6651 10.2569 12.4951 11.0302 11.5951L8.8302 11.2868L6.59853 12.2734C6.23896 13.3972 6.11083 14.5821 6.22186 15.7568L9.98853 16.3568C9.85604 15.8962 9.78872 15.4193 9.78853 14.9401V14.9418ZM23.7002 14.9418C23.7002 13.0651 23.1069 11.3251 22.1002 9.89842L19.9169 9.59009L17.6735 10.5768C18.4139 11.0396 19.0246 11.683 19.4481 12.4465C19.8717 13.21 20.0944 14.0686 20.0952 14.9418C20.0952 16.0084 19.7685 16.9984 19.2119 17.8218L22.9785 18.4218C23.4552 17.3234 23.7002 16.1384 23.7002 14.9418Z" fill="#E84F8C"/>
<path d="M14.9418 9.78836C15.9091 9.78749 16.8568 10.0608 17.6751 10.5767L22.1001 9.89837C21.1623 8.56564 19.8711 7.52112 18.3719 6.88235C16.8727 6.24358 15.225 6.03592 13.6141 6.28274C12.0033 6.52956 10.4934 7.22106 9.25419 8.27942C8.01503 9.33778 7.09585 10.721 6.6001 12.2734L11.0301 11.595C11.5125 11.0288 12.1121 10.574 12.7875 10.262C13.4628 9.95011 14.1979 9.7885 14.9418 9.78836ZM23.1851 8.75837C24.3218 8.75837 25.2468 7.83503 25.2468 6.69837C25.2207 6.16936 24.9922 5.67063 24.6086 5.30544C24.2249 4.94025 23.7156 4.73657 23.1859 4.73657C22.6563 4.73657 22.1469 4.94025 21.7633 5.30544C21.3797 5.67063 21.1512 6.16936 21.1251 6.69837C21.1251 7.83503 22.0484 8.75837 23.1851 8.75837Z" fill="#BB368E"/>
<path d="M3.09167 18.2999L1.60333 17.5599L0 17.2932V19.8215L3.09167 21.2065V18.2999Z" fill="#EB5D4B"/>
<path d="M0 14.7667V17.295L3.09167 18.3017V15.2583L1.48333 14.6833L0 14.7667Z" fill="#D7515E"/>
<path d="M3.09167 12.8099L1.50333 12.7949L0 13.2833V14.7666L3.09167 15.2583V12.8099Z" fill="#E84F8C"/>
<path d="M3.09167 10.4917L1.45333 10.6584L0 12.0217V13.2834L3.09167 12.81V10.4917Z" fill="#BB368E"/>
<path d="M0 12.0216L3.09167 10.4916V6.96655L1.27833 7.13989L0 8.35989V12.0216Z" fill="#82318A"/>
<path d="M11.9683 0L4.91667 2.71333L0.0833333 5.65667C0.0286202 6.00177 0.000758834 6.35059 0 6.7L0 8.36167L3.09167 6.96833V6.7C3.09167 4.71167 4.70833 3.09333 6.69833 3.09333H11.6883L18.545 0H11.9667H11.9683Z" fill="#4E338B"/>
<path d="M6.69821 0C5.10283 0.00207375 3.56041 0.572663 2.34777 1.60936C1.13512 2.64607 0.33165 4.08101 0.081543 5.65667L11.9665 0H6.69988H6.69821Z" fill="#2A2C7F"/>
</g>
<defs>
<clipPath id="clip0_234_2758">
<rect width="30" height="30" fill="white"/>
</clipPath>
</defs>
</svg>
