<svg width="30" height="30" viewBox="0 0 30 30" fill="none" xmlns="http://www.w3.org/2000/svg">
<path d="M28.75 27.5H22.48V18.53C22.48 16.1825 21.4988 14.58 19.3425 14.58C17.6925 14.58 16.7738 15.6612 16.3475 16.7037C16.1875 17.0787 16.2125 17.5987 16.2125 18.12V27.5H10C10 27.5 10.08 11.6112 10 10.1662H16.2125V12.8875C16.5788 11.6975 18.5625 10 21.7325 10C25.6625 10 28.75 12.4938 28.75 17.8625V27.5ZM4.36 8.75H4.3225C2.45875 8.75 1.25 7.3725 1.25 5.6275C1.25 3.84875 2.49375 2.5 4.395 2.5C6.295 2.5 7.4625 3.845 7.5 5.6225C7.5 7.3675 6.295 8.75 4.36 8.75ZM2.5 10H7.5V27.5H2.5V10Z" fill="#0077B5"/>
</svg>
