<svg width="10" height="24" viewBox="0 0 10 24" fill="none" xmlns="http://www.w3.org/2000/svg">
<path d="M8.8341 15.0857C9.5604 16.0125 10 17.2468 10 18.5475C10 21.5647 7.75994 24 5.01529 24C2.27065 24 0 21.5647 0 18.5475C0 17.2426 0.443426 16.0083 1.1659 15.0857C1.73547 14.1922 2.04893 13.1325 2.04893 11.9979C2.04893 10.8634 1.70107 9.69974 1.13532 8.84364C0.409022 7.88364 0 6.71585 0 5.38182C0 2.39793 2.24006 0 5.01529 0C7.79052 0 10 2.40208 10 5.38182C10 6.72001 9.59098 7.88364 8.89526 8.84364C8.29511 9.69974 7.94725 10.8343 7.94725 11.9979C7.94725 13.1616 8.26453 14.1922 8.83028 15.0857H8.8341Z" fill="#3D3935"/>
</svg>
