<svg width="56" height="48" viewBox="0 0 56 48" fill="none" xmlns="http://www.w3.org/2000/svg">
<g clip-path="url(#clip0_18_110)">
<path d="M28.0022 46.3935C19.4096 46.324 11.5847 42.7723 6.28084 35.4171C0.977005 28.0575 1.2736 21.879 2.04126 15.683C2.81328 9.48711 7.69404 4.2768 7.69404 4.2768C7.69404 4.2768 3.82956 8.75332 7.08776 13.3037C10.346 17.8497 16.2037 16.9726 17.6344 16.4429C19.065 15.9132 22.8248 13.2168 24.9926 15.1056C27.1604 16.9943 26.3055 19.1088 25.7384 21.4839C25.1714 23.8589 23.7713 25.4524 24.0156 26.9894C24.2598 28.5265 24.5913 29.7465 27.3828 30.2763C30.1699 30.806 31.3389 28.9737 31.9713 27.9403C32.6038 26.9026 31.3956 24.6839 30.8329 23.1121C30.2703 21.5403 28.7218 17.2461 30.4404 15.4703C32.1589 13.6944 34.9242 14.5455 37.3929 16.1129C39.8617 17.6803 46.5002 17.029 48.8468 13.3862C51.1934 9.74328 49.959 6.27843 48.2972 4.28114C48.2972 4.28114 53.1823 9.49145 53.95 15.6874C54.722 21.8833 55.0142 28.0619 49.7104 35.4171C44.4066 42.7767 36.586 46.3284 27.9891 46.3935" fill="#3E3A39"/>
<path d="M28.0022 44.7826C26.9641 44.7696 25.9304 44.7175 24.901 44.6003C24.8051 44.5916 24.2511 44.5221 24.5259 44.5569C24.2599 44.5221 23.9938 44.4787 23.7277 44.4353C23.2261 44.3528 22.7289 44.2529 22.236 44.1444C21.2808 43.9316 20.3343 43.6668 19.4053 43.3498C18.956 43.1978 18.5111 43.0285 18.0706 42.8548C17.7696 42.7376 17.9528 42.8071 18.0183 42.8375C17.8961 42.7854 17.774 42.7332 17.6562 42.6811C17.3902 42.5639 17.1285 42.4423 16.8668 42.3164C16.0075 41.8996 15.1744 41.4394 14.3719 40.9313C13.4559 40.3539 12.7973 39.8763 12.0994 39.2988C11.3187 38.6518 10.5728 37.9615 9.87495 37.2277C9.52601 36.863 9.19016 36.4896 8.85867 36.1075C8.50973 35.695 8.21314 35.3303 7.98633 35.0307C7.23175 34.019 6.53388 32.9639 5.91888 31.8611C5.3693 30.8798 4.92441 29.9463 4.57983 29.0301C4.23526 28.114 3.92557 27.0893 3.70749 26.0906C3.60717 25.6261 3.5243 25.1615 3.44579 24.6925C3.39345 24.3669 3.42834 24.5883 3.43706 24.6578C3.41962 24.5319 3.40653 24.4016 3.38908 24.2757C3.35855 23.9978 3.33238 23.7156 3.31057 23.4377C3.16664 21.5967 3.24079 19.7427 3.41525 17.9061C3.45887 17.4632 3.50249 17.0204 3.55483 16.5775C3.62025 16.0087 3.64206 15.7786 3.72057 15.3574C3.90377 14.337 4.19164 13.3384 4.55802 12.3701C4.59728 12.2659 4.63653 12.1661 4.67579 12.0662C4.68887 12.0358 4.8677 11.606 4.76302 11.8491C4.87643 11.5799 4.99856 11.3151 5.12504 11.0545C5.35622 10.5726 5.60483 10.0993 5.86654 9.63474C6.32451 8.8228 6.82611 8.03691 7.36696 7.27273C7.57196 6.98616 7.7726 6.68223 7.99941 6.41303C7.66356 6.80814 8.02994 6.37395 8.10409 6.28711C8.18696 6.1829 8.2742 6.0787 8.36143 5.97449C8.51846 5.78779 8.67548 5.60109 8.84122 5.42307L6.55569 3.1479C4.62781 5.40136 3.65515 8.65346 4.46206 11.5452C5.59611 15.6049 9.43005 18.045 13.4646 18.4445C14.7688 18.5748 16.1209 18.4836 17.3989 18.1927C18.5853 17.9235 19.6277 17.2505 20.7182 16.7425C20.8185 16.6947 20.9232 16.6469 21.0278 16.6035C21.102 16.5688 21.3899 16.4559 21.0845 16.5775C21.2547 16.508 21.4291 16.4429 21.6036 16.3821C21.7999 16.3126 21.9961 16.2518 22.1968 16.1997C22.3058 16.1693 22.4149 16.1433 22.5283 16.1216C22.6199 16.1042 23.0211 16.0521 22.6242 16.0912C22.7943 16.0738 22.9688 16.0608 23.1389 16.0608C23.2218 16.0608 23.309 16.0695 23.3919 16.0695C23.0299 16.0651 23.2741 16.0434 23.3919 16.0738C23.4922 16.0999 23.5925 16.1303 23.6885 16.1563C23.8237 16.191 23.8455 16.2866 23.6449 16.1389C23.7016 16.1824 23.8063 16.2301 23.8673 16.2649C24.1814 16.4342 23.6449 16.0261 23.9938 16.3734C24.0767 16.4559 24.1639 16.5427 24.2468 16.6296C24.6088 16.9813 24.2032 16.5341 24.3602 16.7555C24.4125 16.825 24.7091 17.3764 24.5914 17.0985C24.6655 17.2722 24.7004 17.4589 24.7527 17.6412C24.8661 18.032 24.7789 17.4632 24.7658 17.6977C24.7571 17.8106 24.7789 17.9322 24.7789 18.0494C24.7789 18.2882 24.7615 18.527 24.7309 18.7658C24.7746 18.4402 24.6873 18.9655 24.6655 19.0697C24.5608 19.5821 24.4256 20.0858 24.2991 20.5938C24.1726 21.1018 24.0636 21.5533 23.8978 22.0266C23.6885 22.6301 23.6449 22.7039 23.3962 23.2597C22.9862 24.1715 22.5588 25.0703 22.4236 26.0689C22.2229 27.5929 22.7682 29.5077 23.972 30.5237C25.5553 31.8567 28.2247 32.4255 30.1787 31.67C31.0162 31.3444 31.7664 30.8494 32.3552 30.1677C32.8481 29.5989 33.4238 28.8738 33.6375 28.14C34.1828 26.2383 32.9571 24.2714 32.3378 22.5433C32.0979 21.8746 31.8754 21.206 31.6879 20.5199C31.5832 20.1379 31.4916 19.7558 31.4174 19.3693C31.3956 19.2521 31.3738 19.1349 31.352 19.022C31.3346 18.9351 31.2953 18.6182 31.3389 18.9612C31.3128 18.7311 31.2909 18.501 31.2779 18.2665C31.2691 18.0841 31.2691 17.9061 31.2735 17.7237C31.2735 17.6195 31.304 17.498 31.2953 17.3938C31.2735 17.1723 31.2168 17.6456 31.2866 17.4415C31.3433 17.2765 31.3782 17.0768 31.4174 16.9031C31.4829 16.6339 31.4174 16.8988 31.3869 16.9552C31.4392 16.851 31.5003 16.7512 31.5526 16.6513C31.6791 16.4125 31.5526 16.6513 31.509 16.6991C31.5919 16.6166 31.6704 16.5297 31.7576 16.4472C31.9496 16.2692 31.4698 16.5905 31.8536 16.3734C31.9408 16.3256 32.0237 16.2735 32.1109 16.2258C32.3857 16.0738 32.1938 16.1997 32.1284 16.2171C32.22 16.191 32.3116 16.1563 32.4075 16.1346C32.4075 16.1346 32.8612 16.0695 32.6256 16.0868C32.4381 16.1042 32.883 16.0868 32.9353 16.0868C33.0662 16.0868 33.1927 16.0955 33.3235 16.1085C33.2537 16.1042 33.0356 16.0521 33.3671 16.1172C33.5852 16.1607 33.7989 16.2084 34.0127 16.2692C34.6277 16.4472 34.8894 16.5601 35.4389 16.8467C36.2328 17.2548 36.935 17.7541 37.7812 18.0537C39.2031 18.5617 40.8475 18.6138 42.3348 18.4445C44.1187 18.2361 45.8765 17.7715 47.4336 16.851C49.2612 15.7742 50.4956 14.1634 51.237 12.1965C52.0614 10.0081 51.8651 7.6114 50.9405 5.49688C50.561 4.63284 50.0463 3.87734 49.4487 3.1479L47.1632 5.42307C47.2984 5.57069 47.4293 5.72266 47.5601 5.87463C47.6997 6.03962 47.8393 6.20896 47.9789 6.38263C48.1184 6.55631 48.2231 6.62578 48.005 6.41303C48.1315 6.53894 48.2362 6.71696 48.3452 6.86025C49.3615 8.24098 50.26 9.71289 50.9884 11.263C51.08 11.454 51.1673 11.6494 51.2501 11.8448C51.1498 11.606 51.2807 11.9273 51.3068 11.9837C51.3592 12.1096 51.4072 12.2355 51.4551 12.3658C51.6296 12.8347 51.791 13.308 51.9262 13.7856C52.0614 14.2632 52.1835 14.7712 52.2751 15.2706C52.3667 15.7699 52.3842 15.9479 52.454 16.5731C52.6633 18.3967 52.8116 20.2334 52.768 22.0744C52.7593 22.5303 52.7331 22.9818 52.6982 23.4377C52.6808 23.6678 52.659 23.8936 52.6328 24.1237C52.6197 24.2497 52.6023 24.3799 52.5892 24.5058C52.5456 24.8575 52.6284 24.3061 52.563 24.6925C52.3973 25.6695 52.201 26.6334 51.9175 27.5886C51.2719 29.7465 50.3429 31.6092 49.0518 33.5674C46.8535 36.8977 43.9225 39.7156 40.4069 41.6695C39.9228 41.9387 39.4299 42.1905 38.9283 42.4293C38.6666 42.5552 38.4005 42.6725 38.1345 42.7897C38.0952 42.8071 37.851 42.9069 38.0821 42.8114C37.9338 42.8722 37.7899 42.9286 37.6416 42.9894C36.6079 43.3932 35.548 43.7275 34.4706 43.9967C33.956 44.127 33.4325 44.2399 32.9091 44.3398C32.6213 44.3962 32.329 44.444 32.0368 44.4917C31.9059 44.5134 31.7707 44.5308 31.6399 44.5525C31.2909 44.6046 31.8144 44.5351 31.4305 44.5786C30.2921 44.7045 29.1537 44.7826 28.0066 44.7957C27.1342 44.8043 26.3884 45.5294 26.3884 46.4065C26.3884 47.2836 27.1299 48.0261 28.0066 48.0174C32.3727 47.9696 36.6864 47.0621 40.6294 45.1777C44.5724 43.2934 48.0356 40.3191 50.7093 36.7978C53.6098 32.9726 55.4723 28.5308 55.9084 23.746C56.0829 21.8052 56.0131 19.8469 55.8299 17.9104C55.6249 15.7308 55.3501 13.5815 54.5738 11.5148C53.431 8.48413 51.6819 5.52727 49.4575 3.1479C48.8643 2.50963 47.7738 2.54871 47.1719 3.1479C46.5002 3.81655 46.618 4.74573 47.1719 5.42307C47.3595 5.65319 47.1981 5.45346 47.1632 5.41004C47.2286 5.50122 47.2984 5.5924 47.3595 5.68358C47.4642 5.83555 47.5645 5.99186 47.6604 6.15251C47.7695 6.33921 47.8742 6.52592 47.9701 6.7213C48.0137 6.80814 48.053 6.89932 48.0966 6.98616C47.9788 6.72999 48.1315 7.08168 48.1577 7.1555C48.2973 7.54193 48.3932 7.93704 48.4804 8.34084C48.5459 8.65346 48.5023 8.45807 48.4935 8.38426C48.5066 8.48847 48.5153 8.59702 48.5241 8.70556C48.5459 8.97911 48.5502 9.25265 48.5371 9.52619C48.5371 9.57829 48.4674 10.1775 48.5066 9.94735C48.463 10.2122 48.4019 10.4727 48.3321 10.7289C48.1795 11.276 48.0137 11.645 47.739 12.1313C47.6125 12.3571 47.4685 12.5742 47.3246 12.7913C47.281 12.8608 47.1327 13.0084 47.3508 12.7609C47.2941 12.8217 47.2461 12.8868 47.1894 12.9476C46.9408 13.2299 46.6616 13.4773 46.3737 13.7161C46.6573 13.4773 46.2778 13.7769 46.1862 13.8377C46.0248 13.9463 45.8591 14.0461 45.6933 14.1417C45.5407 14.2285 45.388 14.3067 45.2353 14.3848C45.1394 14.4326 45.0391 14.476 44.9387 14.5237C44.6639 14.6583 45.087 14.4803 44.9038 14.5411C44.1667 14.7929 43.4514 15.0318 42.6837 15.1707C42.566 15.1924 42.0949 15.2575 42.47 15.2141C42.2781 15.2402 42.0862 15.2575 41.8943 15.2749C41.5192 15.3053 41.1441 15.3183 40.7689 15.3096C40.4331 15.3053 40.1016 15.2749 39.7657 15.2445C40.1321 15.2792 39.8094 15.2488 39.6436 15.2185C39.4692 15.1881 39.299 15.149 39.1246 15.1012C38.9937 15.0665 38.8672 15.0274 38.7407 14.984C38.6797 14.9623 38.6186 14.9362 38.5576 14.9189C38.2871 14.832 38.684 14.9536 38.684 14.9753C38.684 14.9275 37.6678 14.3935 37.6547 14.3848C36.6951 13.829 35.6439 13.3427 34.5579 13.0866C32.4075 12.5786 30.026 13.0735 28.7699 15.0274C27.771 16.5818 27.9804 18.6486 28.3337 20.3636C28.6259 21.7748 29.1014 23.1512 29.6466 24.4841C29.9999 25.3482 30.3357 26.1992 30.5495 27.111C30.4709 26.768 30.532 27.2022 30.5407 27.3281L30.5713 27.1284C30.532 27.2673 30.5364 27.2716 30.5887 27.1457C30.5582 27.0415 30.6585 27.0285 30.5625 27.1805C30.4142 27.4062 30.2485 27.632 30.1133 27.8621C30.0086 28.0402 30.327 27.6277 30.1787 27.7796C30.1176 27.8404 30.0653 27.9142 30.0086 27.9794C29.9126 28.0879 29.808 28.1921 29.7033 28.292C29.6466 28.3441 29.5855 28.3875 29.5332 28.4396C29.7818 28.2052 29.6684 28.3441 29.5812 28.3962C29.4067 28.5004 29.2409 28.6003 29.0578 28.6915C29.398 28.5265 28.9487 28.7088 28.8309 28.7392C28.7437 28.7609 28.6521 28.7783 28.5605 28.7957C28.8964 28.7436 28.5649 28.7826 28.4776 28.787C28.3468 28.787 27.9499 28.7783 27.9586 28.7783C28.1723 28.8 27.5704 28.7045 27.6358 28.7175C27.4919 28.6871 27.348 28.6524 27.204 28.6133C26.9772 28.5525 26.7504 28.483 26.5323 28.3962C26.8333 28.5134 26.4015 28.318 26.323 28.2746C26.2532 28.2356 26.1921 28.1878 26.1223 28.1487C26.1747 28.1791 26.3579 28.3875 26.1877 28.1965C26.1441 28.1487 26.0831 28.0966 26.0351 28.0532C25.8737 27.9099 25.9391 27.797 26.0351 28.0706C25.9958 27.962 25.9042 27.8361 25.8388 27.7406C25.6774 27.4974 25.8911 27.8665 25.8868 27.8621C25.865 27.8448 25.8344 27.7145 25.8214 27.6798C25.7341 27.3715 25.6949 27.0502 25.6076 26.7463C25.5509 26.5465 25.6033 27.0632 25.6207 26.8418C25.6251 26.7636 25.6207 26.6811 25.612 26.603C25.6076 26.4944 25.6643 26.2296 25.5946 26.6073C25.612 26.5248 25.6251 26.4423 25.6425 26.3642C25.6818 26.1948 25.7341 26.0299 25.7908 25.8649C25.8214 25.778 25.8519 25.6912 25.8868 25.6087C25.8955 25.5826 26.0787 25.1571 25.9435 25.4611C26.3491 24.5319 26.794 23.6157 27.1037 22.6475C27.6838 20.8326 28.277 18.7094 27.8714 16.8076C27.4221 14.7018 25.5335 13.0214 23.3875 12.8738C21.6341 12.7522 19.9069 13.5642 18.3846 14.3284C18.0924 14.476 17.8045 14.628 17.5079 14.7712C17.3771 14.8364 17.2462 14.8928 17.1197 14.9579C16.8799 15.0795 17.4949 14.8407 17.1459 14.9406C16.7708 15.0491 16.4001 15.1446 16.0119 15.2098C15.9552 15.2185 15.8985 15.2271 15.8418 15.2358C15.5757 15.2836 16.0032 15.2141 16.0075 15.2141C15.9246 15.2662 15.676 15.2488 15.5844 15.2575C15.2747 15.2836 14.9651 15.2966 14.6554 15.2966C14.3457 15.2966 14.0186 15.2879 13.7002 15.2619C13.5431 15.2488 13.3861 15.2271 13.2291 15.2141C13.6827 15.2532 13.059 15.1837 12.9369 15.1577C12.6054 15.0925 12.2782 15.0144 11.9598 14.9189C11.7723 14.8624 11.5891 14.7973 11.4059 14.7322C11.3579 14.7148 11.0962 14.6149 11.2925 14.6931C11.4888 14.7712 11.1006 14.6062 11.0613 14.5845C10.7124 14.4152 10.3722 14.2242 10.0494 14.0114C9.96654 13.955 9.56963 13.6597 9.80516 13.8464C9.61325 13.6944 9.43005 13.5338 9.25558 13.3645C9.11165 13.2255 8.96771 13.0779 8.8325 12.9303C8.80197 12.8955 8.43122 12.444 8.58824 12.648C8.25675 12.2095 7.94707 11.7189 7.73771 11.2065C7.81622 11.4062 7.69845 11.0719 7.68101 11.0242C7.64611 10.9199 7.61122 10.8114 7.58069 10.7029C7.51526 10.4684 7.46292 10.2339 7.42367 9.99512C7.47165 10.3034 7.41058 9.72157 7.40622 9.65645C7.3975 9.40896 7.40622 9.16147 7.4193 8.91832C7.42803 8.8228 7.43675 8.72727 7.44547 8.63175C7.43675 8.69688 7.38441 8.94437 7.44547 8.64044C7.48473 8.46242 7.51526 8.2844 7.55888 8.10638C7.65484 7.73297 7.78133 7.36825 7.9209 7.00787C7.76388 7.41601 7.98196 6.8863 8.02122 6.80814C8.09101 6.66486 8.16516 6.52157 8.24367 6.38263C8.37452 6.14817 8.50973 5.92239 8.65803 5.70095C8.74963 5.56635 8.84995 5.43609 8.94154 5.30149C9.00697 5.20597 8.63622 5.6749 8.83686 5.44044C9.40388 4.78046 9.48676 3.81221 8.83686 3.16527C8.23494 2.56608 7.14888 2.527 6.55132 3.16527C4.7543 5.08874 3.25387 7.42035 2.15908 9.80407C1.17333 11.9533 0.610674 14.1069 0.335887 16.4516C0.113439 18.3446 -0.0435823 20.2811 0.01312 22.2176C0.148333 26.8678 1.60078 31.2923 4.16547 35.1826C6.66473 38.9731 9.97963 42.2209 13.9706 44.4396C18.2538 46.819 23.1171 47.9522 28.0022 48.0043C28.8746 48.013 29.6204 47.2575 29.6204 46.3935C29.6204 45.5294 28.8789 44.7957 28.0022 44.7826Z" fill="#3E3A39"/>
<path d="M28.0022 5.9962C29.001 6.03528 30.0304 5.82252 30.9725 5.51425C31.9234 5.20597 32.7128 4.83691 33.511 4.2464C34.4183 3.57775 35.3211 2.90475 36.2284 2.23609C38.1868 0.785888 40.7995 0.560108 43.2289 0.76852C45.7151 0.981275 48.0486 2.50095 49.2437 4.6806C50.7311 7.3943 50.3996 10.9851 48.2449 13.2385C46.6703 14.8885 44.4677 15.8654 42.1996 16.0478C40.4025 16.191 38.575 15.8437 36.9393 15.0839C35.6308 14.4716 34.3572 13.5815 32.9135 13.6076C31.9714 13.625 31.0423 14.0678 30.436 14.7886C29.2715 16.1737 29.6989 18.3012 30.0697 19.9121C30.3619 21.1843 30.7893 22.4651 31.3345 23.6548C31.8536 24.7924 32.2767 26.0255 32.0542 27.1457C31.8798 28.0358 31.4261 28.6046 30.8504 29.0692C30.074 29.6944 29.1581 30.1286 28.0066 30.146" fill="white"/>
<path d="M28.0022 6.67354C29.2845 6.70393 30.5625 6.41737 31.7533 5.95278C32.944 5.48819 33.8731 4.8152 34.8719 4.07707C35.8707 3.33894 36.7867 2.527 37.912 2.04939C38.9501 1.61085 40.0885 1.42849 41.2051 1.38942C43.3685 1.31126 45.4708 1.68467 47.137 3.15224C48.8032 4.61981 49.5578 6.55631 49.4618 8.6578C49.2394 13.3775 44.1929 15.9957 39.8748 15.2836C38.6622 15.0839 37.55 14.6497 36.4639 14.0896C35.3778 13.5294 34.3659 13.0041 33.1752 12.9346C32.076 12.8695 30.9594 13.3037 30.1743 14.0635C29.3892 14.8233 29.0839 15.7699 29.0054 16.7859C28.9182 17.9539 29.1799 19.1479 29.4503 20.2811C29.7774 21.6315 30.2659 22.908 30.8199 24.1758C31.3302 25.3482 31.8012 26.8461 30.9638 27.9837C30.2921 28.8999 29.1144 29.4252 28.0022 29.4643C27.1255 29.4947 27.1211 30.8537 28.0022 30.8233C30.2005 30.7452 32.4948 29.2733 32.7608 26.9677C32.9178 25.613 32.3726 24.3408 31.8361 23.1294C31.2996 21.918 30.9376 20.698 30.6541 19.4388C30.4229 18.3967 30.1918 17.2548 30.4666 16.1997C30.7413 15.1446 31.6529 14.3935 32.739 14.2936C34.0083 14.1764 35.1772 14.9753 36.2589 15.5137C37.406 16.0825 38.6142 16.4776 39.8879 16.6513C44.5156 17.2852 49.85 14.6844 50.6962 9.77802C51.0713 7.6114 50.622 5.30149 49.3048 3.51696C47.9876 1.73243 45.955 0.460243 43.7262 0.147624C41.1615 -0.212756 38.1955 0.039076 36.019 1.55007C34.7847 2.40543 33.6506 3.46051 32.3334 4.19864C31.0161 4.93677 29.4808 5.35359 27.9978 5.31886C27.1168 5.30149 27.1168 6.66051 27.9978 6.67788L28.0022 6.67354Z" fill="white"/>
<path d="M28.0022 5.9962C27.0034 6.03528 25.974 5.82252 25.0319 5.51425C24.081 5.20597 23.2915 4.83691 22.4933 4.2464C21.5861 3.57775 20.6832 2.90475 19.776 2.23609C17.8176 0.785888 15.2049 0.560108 12.7755 0.76852C10.2893 0.981275 7.95577 2.50095 6.76066 4.6806C5.27332 7.3943 5.60481 10.9851 7.75949 13.2385C9.33407 14.8885 11.5367 15.8654 13.8048 16.0478C15.6018 16.191 17.4294 15.8437 19.065 15.0839C20.3736 14.4716 21.6472 13.5815 23.0909 13.6076C24.033 13.625 24.9621 14.0678 25.5684 14.7886C26.7329 16.1737 26.3055 18.3012 25.9347 19.9121C25.6425 21.1843 25.2151 22.4651 24.6698 23.6548C24.1508 24.7924 23.7277 26.0255 23.9502 27.1457C24.1246 28.0358 24.5782 28.6046 25.154 29.0692C25.9304 29.6944 26.8638 30.1156 27.9978 30.146" fill="white"/>
<path d="M28.0022 5.31452C26.6545 5.34491 25.2587 4.99321 24.0505 4.39837C22.8423 3.80353 21.8522 2.92646 20.801 2.14925C19.7499 1.37205 18.7903 0.777203 17.5647 0.434191C16.4175 0.112888 15.2006 -1.68756e-06 14.0055 0.0217079C11.6807 0.0607853 9.5173 0.70339 7.78133 2.29688C6.13697 3.80787 5.20356 5.95712 5.17303 8.18019C5.1425 10.4033 5.99739 12.5134 7.59378 14.0244C9.32538 15.657 11.6327 16.5948 14.0055 16.7381C15.3445 16.8206 16.7185 16.6383 17.9965 16.2258C19.1916 15.8437 20.2384 15.1881 21.3811 14.6887C22.5239 14.1894 23.7583 14.0765 24.744 14.9102C25.5858 15.6179 25.708 16.7121 25.6295 17.7411C25.5335 19.0524 25.1628 20.3853 24.744 21.6271C24.2686 23.0426 23.4617 24.3669 23.2654 25.8649C22.8947 28.6828 25.3329 30.7018 28.0022 30.819C28.8789 30.8581 28.8789 29.499 28.0022 29.46C26.9336 29.4122 25.8693 28.9476 25.1628 28.1313C24.3689 27.2152 24.5259 25.9908 24.888 24.9313C25.2936 23.7417 25.8737 22.6301 26.2401 21.4231C26.5585 20.381 26.8115 19.3042 26.9423 18.2231C27.2128 16.0521 26.5149 13.8725 24.2555 13.117C21.9961 12.3615 19.9156 14.1373 17.8133 14.8537C15.5365 15.6266 12.9849 15.5919 10.7909 14.5628C8.86304 13.6597 7.30155 12.114 6.75633 10.0298C6.21112 7.94572 6.63857 5.84857 7.87729 4.19864C9.12474 2.54437 11.0701 1.55441 13.1288 1.41547C14.4068 1.32863 15.7066 1.36336 16.954 1.67598C18.2015 1.9886 19.2308 2.67028 20.282 3.44749C21.4204 4.28982 22.5196 5.22334 23.8368 5.78344C25.154 6.34355 26.5672 6.69959 27.9979 6.6692C28.8746 6.65183 28.8789 5.28846 27.9979 5.31017L28.0022 5.31452Z" fill="white"/>
<path d="M28.0022 7.78508C25.3503 7.7981 23.056 7.48983 21.1761 5.9962C19.9025 4.98454 18.8077 3.69064 17.3073 3.00027C14.5899 1.7498 10.2457 2.90475 8.75398 5.57069C8.25674 6.46079 8.08228 7.50285 8.1477 8.51886C8.21313 9.54356 8.52281 10.5683 9.12036 11.4019C10.1017 12.7696 11.7854 13.5164 13.4603 13.7205C15.5321 13.9723 17.5952 13.5425 19.6016 13.0475C21.5905 12.5569 23.767 11.9316 25.7777 12.6654C26.2532 12.8391 26.7199 13.0996 27.0252 13.5077C27.361 13.9506 27.4788 14.5194 27.5573 15.0708C27.976 17.9973 27.6227 21.0193 26.6457 23.8111C26.3666 24.61 26.0307 25.422 26.0482 26.2687C26.07 27.2543 26.5454 28.2703 27.9935 28.2312" fill="#EFEFEF"/>
<path d="M28.0022 7.10339C25.8999 7.10774 23.7146 6.93406 21.9307 5.70963C20.1468 4.48521 18.9647 2.76147 16.8929 2.11452C13.7045 1.11588 9.28175 2.54003 7.92089 5.74003C7.04419 7.80244 7.39749 10.4206 8.84558 12.1444C10.2937 13.8681 12.5705 14.463 14.7077 14.4716C17.2462 14.4803 19.619 13.6206 22.0834 13.1734C23.2349 12.965 24.4867 12.8868 25.5989 13.321C26.8071 13.7943 26.8943 14.9232 26.9903 16.0738C27.2258 18.8744 26.7111 21.5533 25.7952 24.1889C25.4201 25.2613 25.1584 26.451 25.6425 27.5322C26.07 28.483 26.9903 28.9085 27.9978 28.9129C28.8746 28.9129 28.8789 27.5539 27.9978 27.5539C25.6861 27.5539 27.2127 24.3582 27.5573 23.2293C28.229 21.0236 28.53 18.679 28.3773 16.3777C28.3119 15.3704 28.2596 14.1851 27.71 13.3037C27.1604 12.4223 26.1616 11.9967 25.1976 11.797C22.9383 11.3324 20.6963 12.114 18.5111 12.609C16.3259 13.1039 13.9531 13.4643 11.829 12.6176C9.70483 11.771 8.69728 9.91696 8.82377 7.75468C9.03313 4.28982 13.2291 2.5574 16.2736 3.35631C18.4195 3.92076 19.7019 5.9441 21.5163 7.06866C23.4442 8.26703 25.7777 8.4711 27.9978 8.46676C28.8746 8.46676 28.8789 7.10339 27.9978 7.10774L28.0022 7.10339Z" fill="#EFEFEF"/>
<path d="M28.0022 7.78508C30.6018 7.81547 32.9484 7.48983 34.8283 5.9962C36.1019 4.98453 37.1967 3.69064 38.6971 3.00027C41.4145 1.7498 45.7587 2.90475 47.2504 5.57069C47.7477 6.46079 47.9221 7.50285 47.8567 8.51886C47.7913 9.54356 47.4816 10.5683 46.884 11.4019C45.9027 12.7696 44.219 13.5164 42.5441 13.7205C40.4723 13.9723 38.4092 13.5425 36.4029 13.0475C34.4139 12.5569 32.2374 11.9316 30.2267 12.6654C29.7512 12.8391 29.2845 13.0996 28.9792 13.5077C28.6434 13.9506 28.5256 14.5194 28.4471 15.0708C28.0284 17.9973 28.3817 21.0193 29.3587 23.8111C29.6378 24.61 29.9737 25.422 29.9562 26.2687C29.9344 27.2543 29.2758 28.2312 28.0109 28.2312" fill="#EFEFEF"/>
<path d="M28.0022 8.46242C29.9911 8.47978 32.0149 8.30176 33.8294 7.4247C35.6439 6.54763 36.8346 4.8152 38.575 3.82524C41.1353 2.37069 45.401 3.36499 46.7532 6.0787C47.6648 7.91533 47.185 10.451 45.6104 11.7753C43.9529 13.1691 41.5889 13.2646 39.5389 12.991C37.249 12.6828 35.0507 11.797 32.7346 11.6624C30.6628 11.5408 28.3162 12.2008 27.8582 14.476C27.361 16.9552 27.5485 19.6125 28.1287 22.057C28.4165 23.2771 29.0054 24.445 29.2191 25.6782C29.3761 26.59 29.0533 27.5148 28.0022 27.5495C27.1255 27.5799 27.1211 28.9389 28.0022 28.9085C28.9356 28.8782 29.773 28.47 30.2528 27.6494C30.7719 26.7593 30.6759 25.6955 30.3924 24.749C30.0522 23.594 29.6073 22.4868 29.3543 21.3015C29.0839 20.0467 28.9487 18.7658 28.953 17.4806C28.953 16.9118 28.9835 16.3387 29.0403 15.7699C29.0926 15.2358 29.1362 14.6193 29.3892 14.1286C29.9039 13.1256 31.4479 12.9867 32.438 13.0084C33.6593 13.0388 34.85 13.3601 36.0321 13.6554C37.2141 13.9506 38.4267 14.2198 39.6479 14.3674C41.8724 14.6366 44.315 14.4239 46.1687 13.0518C48.0224 11.6798 48.7901 9.4133 48.476 7.19023C47.9526 3.44749 43.8177 1.4502 40.3196 1.86703C39.2728 1.99295 38.3089 2.3403 37.4322 2.92646C36.4552 3.58209 35.6308 4.42008 34.741 5.17992C32.8262 6.81248 30.436 7.1251 27.9934 7.10339C27.1124 7.09471 27.1124 8.45373 27.9934 8.46242H28.0022Z" fill="#EFEFEF"/>
</g>
<defs>
<clipPath id="clip0_18_110">
<rect width="56" height="48" fill="white"/>
</clipPath>
</defs>
</svg>
