<svg width="37" height="32" viewBox="0 0 37 32" fill="none" xmlns="http://www.w3.org/2000/svg">
<g clip-path="url(#clip0_14_2581)">
<path d="M18.5015 31.5395C12.6285 31.4923 7.28015 29.0099 3.65498 23.8738C0.029807 18.7348 0.23253 14.4223 0.757226 10.095C1.2849 5.76774 4.62388 2.12822 4.62388 2.12822C4.62388 2.12822 1.98251 5.25413 4.20949 8.43022C6.43646 11.6063 10.4402 10.9923 11.4181 10.6234C12.3959 10.2515 14.9658 8.37119 16.4474 9.68767C17.9291 11.0042 17.3448 12.483 16.9572 14.1419C16.5697 15.8008 15.6127 16.9136 15.7796 17.9851C15.9496 19.0565 16.1731 19.9126 18.0811 20.2815C19.9861 20.6505 20.7851 19.3724 21.2174 18.6492C21.6497 17.926 20.8239 16.3764 20.4393 15.2783C20.0547 14.1802 18.9964 11.1813 20.171 9.94152C21.3456 8.70178 23.2357 9.29509 24.923 10.3902C26.6104 11.4853 31.1479 11.0307 32.7518 8.48631C34.3556 5.94189 33.512 3.5244 32.3761 2.12822C32.3761 2.12822 35.7151 5.76774 36.2398 10.095C36.7675 14.4223 36.9672 18.7348 33.342 23.8738C29.7169 29.0128 24.3715 31.4923 18.4955 31.5395" fill="#B7CDDA"/>
<path d="M18.5015 31.0761C15.7617 31.0466 13.025 30.4798 10.5684 29.2637C8.11191 28.0476 5.88196 26.1437 4.23334 23.8827C2.43268 21.4091 1.2223 18.5813 0.986784 15.5233C0.885422 14.2216 0.939084 12.9169 1.05833 11.6181C1.18951 10.219 1.38627 8.86413 1.88115 7.53879C2.56385 5.71461 3.63411 3.89928 4.95181 2.45882L4.29296 1.80648C3.1124 3.21742 2.53702 5.26299 3.0319 7.0429C3.72653 9.54304 6.08766 11.1193 8.60083 11.3613C9.42663 11.441 10.2822 11.3938 11.0902 11.2049C11.8981 11.016 12.542 10.5702 13.2545 10.2337C14.1757 9.79984 15.4189 9.32165 16.2566 10.1481C17.2643 11.1399 16.9006 12.4328 16.5995 13.646C16.4236 14.3603 16.203 15.0363 15.9078 15.7122C15.6574 16.2848 15.3801 16.8604 15.3116 17.4892C15.2192 18.3511 15.5411 19.4344 16.2238 20.0011C17.1301 20.7538 18.6893 21.0549 19.7953 20.6239C20.6152 20.3051 21.4469 19.4934 21.7272 18.6492C21.918 18.0795 21.7361 17.4301 21.5513 16.8841C21.3456 16.276 21.0773 15.6886 20.8626 15.0835C20.5138 14.0917 20.1799 13.0615 20.1113 12.0078C20.0815 11.5266 20.0845 10.9983 20.3081 10.5584C20.5705 10.0389 21.1518 9.7408 21.7212 9.71719C22.4248 9.68472 23.1194 9.93857 23.7395 10.2485C24.2702 10.5142 24.7412 10.8772 25.2957 11.0898C26.205 11.4381 27.2514 11.4735 28.2113 11.3702C29.3353 11.2492 30.4502 10.9363 31.4251 10.3607C33.8459 8.92907 34.7164 5.81497 33.6193 3.28826C33.3867 2.75104 33.0767 2.26695 32.71 1.80943L32.0512 2.46177C33.1602 3.67494 34.0605 5.15082 34.7432 6.63555C35.8671 9.07666 36.1235 11.8808 36.0639 14.5404C35.9327 20.3789 32.3851 25.9282 27.2901 28.8151C24.616 30.3293 21.5721 31.0466 18.5015 31.082C17.9023 31.0879 17.8993 32.0118 18.5015 32.0059C21.3933 31.9734 24.2612 31.3654 26.8579 30.0902C29.4545 28.8151 31.765 26.8108 33.506 24.4494C35.4229 21.8489 36.6721 18.8529 36.9404 15.6325C37.0507 14.2983 37 12.9553 36.8778 11.624C36.7406 10.1452 36.5439 8.69883 36.0222 7.2997C35.2828 5.32202 34.147 3.37977 32.713 1.80943C32.3016 1.35781 31.6874 2.0072 32.0541 2.46177C33.6372 4.4365 33.5656 7.53879 31.5116 9.18587C30.0448 10.3636 27.6807 10.827 25.8681 10.3046C25.4179 10.1747 25.0691 9.92086 24.6667 9.69062C24.0585 9.34232 23.3967 9.03533 22.705 8.8907C21.5125 8.63685 20.1113 8.93497 19.5091 10.095C19.0083 11.0602 19.1514 12.2439 19.366 13.2652C19.5807 14.2865 19.9056 15.2104 20.2783 16.1432C20.5049 16.7099 20.7881 17.3091 20.8656 17.9231C20.9193 18.3393 20.7255 18.6167 20.487 18.9414C19.8192 19.8506 18.8652 20.0365 17.7979 19.7502C17.3656 19.6351 16.9095 19.458 16.6293 19.092C16.3967 18.7879 16.3192 18.3806 16.2596 18.0116C16.1821 17.5157 16.349 17.0553 16.5369 16.6007C16.7903 15.9897 17.0794 15.3964 17.2792 14.7647C17.4789 14.133 17.6339 13.46 17.7592 12.8077C17.8695 12.2262 17.9261 11.6388 17.8069 11.0543C17.5713 9.89725 16.5816 8.87889 15.3742 8.78148C13.5407 8.63094 12.1753 10.1039 10.4909 10.3902C8.6545 10.7001 6.58851 10.2662 5.23205 8.92907C4.27806 7.99041 3.71162 6.73591 3.80106 5.39582C3.86367 4.46896 4.2244 3.56868 4.72822 2.79532C4.79381 2.69496 4.86238 2.59755 4.93393 2.50014C5.00846 2.39388 4.8743 2.56803 4.96076 2.46472C5.33937 2.0131 4.71034 1.36372 4.30191 1.81238C3.10047 3.12591 2.11965 4.71101 1.39521 6.32267C0.775116 7.70409 0.411407 9.11208 0.241477 10.6116C0.0775095 11.9428 -0.0298146 13.2888 0.00894135 14.6378C0.178871 20.7568 3.89646 26.5806 9.2418 29.6091C12.0561 31.203 15.2698 31.9675 18.5015 32C19.1037 32.0059 19.1037 31.082 18.5015 31.0761Z" fill="#B7CDDA"/>
<path d="M18.5015 4.07637C19.1842 4.10294 19.8878 3.9583 20.5317 3.74873C21.1816 3.53915 21.7212 3.28825 22.2668 2.88682C22.8869 2.43224 23.504 1.97472 24.1241 1.52015C25.4627 0.534265 27.2484 0.380773 28.909 0.522458C30.6083 0.667094 32.2032 1.70021 33.0201 3.18199C34.0367 5.02684 33.8101 7.46794 32.3374 8.9999C31.2611 10.1216 29.7556 10.7857 28.2054 10.9097C26.9771 11.0071 25.728 10.771 24.61 10.2544C23.7157 9.8382 22.8451 9.23309 21.8584 9.2508C21.2144 9.26261 20.5794 9.56369 20.165 10.0537C19.369 10.9953 19.6612 12.4417 19.9146 13.5368C20.1143 14.4016 20.4065 15.2724 20.7791 16.0812C21.1339 16.8545 21.4231 17.6928 21.271 18.4544C21.1518 19.0595 20.8418 19.4462 20.4482 19.762C19.9176 20.1871 19.2915 20.4822 18.5045 20.494" fill="#4C829A"/>
<path d="M18.5015 4.53684C19.378 4.55751 20.2515 4.36269 21.0653 4.04685C21.8792 3.73101 22.5142 3.27349 23.1969 2.77169C23.8796 2.26989 24.5057 1.71791 25.2748 1.39322C25.9844 1.09509 26.7625 0.971121 27.5257 0.944555C29.0044 0.891423 30.4413 1.14527 31.5801 2.14297C32.719 3.14066 33.2347 4.45715 33.1691 5.8858C33.0171 9.09436 29.5678 10.8743 26.6164 10.3902C25.7876 10.2544 25.0274 9.95922 24.2851 9.57844C23.5427 9.19767 22.8511 8.8405 22.0372 8.79328C21.286 8.749 20.5228 9.04418 19.9861 9.56073C19.4495 10.0773 19.2408 10.7208 19.1872 11.4115C19.1275 12.2055 19.3064 13.0172 19.4913 13.7876C19.7148 14.7056 20.0487 15.5735 20.4274 16.4354C20.7762 17.2323 21.0981 18.2507 20.5257 19.0241C20.0666 19.6469 19.2617 20.004 18.5015 20.0306C17.9023 20.0513 17.8993 20.9752 18.5015 20.9545C20.004 20.9014 21.5722 19.9007 21.754 18.3334C21.8613 17.4124 21.4887 16.5475 21.122 15.724C20.7553 14.9005 20.5079 14.071 20.3141 13.215C20.1561 12.5066 19.9981 11.7303 20.1859 11.013C20.3737 10.2957 20.9968 9.78507 21.7391 9.71718C22.6066 9.63748 23.4056 10.1806 24.145 10.5466C24.929 10.9333 25.7548 11.2019 26.6253 11.32C29.7884 11.7509 33.4345 9.98283 34.0128 6.64735C34.2692 5.17442 33.9621 3.60409 33.0618 2.39092C32.1615 1.17774 30.7722 0.312879 29.2488 0.100352C27.4958 -0.144644 25.4686 0.0265582 23.981 1.05377C23.1373 1.63527 22.3622 2.35254 21.4618 2.85434C20.5615 3.35614 19.5121 3.63951 18.4985 3.61589C17.8963 3.60409 17.8963 4.52799 18.4985 4.53979L18.5015 4.53684Z" fill="#4C829A"/>
<path d="M18.5015 4.07636C17.8188 4.10292 17.1152 3.95829 16.4713 3.74871C15.8214 3.53914 15.2818 3.28824 14.7362 2.8868C14.1161 2.43223 13.499 1.97471 12.8789 1.52014C11.5403 0.53425 9.75457 0.380758 8.09402 0.522442C6.39472 0.667079 4.79977 1.70019 3.98291 3.18198C2.96631 5.02682 3.19289 7.46793 4.66561 8.99989C5.74184 10.1216 7.24736 10.7857 8.79759 10.9097C10.0259 11.0071 11.275 10.7709 12.393 10.2544C13.2873 9.83819 14.1578 9.23308 15.1446 9.25079C15.7886 9.2626 16.4236 9.56368 16.838 10.0537C17.6339 10.9953 17.3418 12.4416 17.0884 13.5367C16.8886 14.4016 16.5965 15.2724 16.2238 16.0812C15.8512 16.8899 15.5799 17.6928 15.7319 18.4544C15.8512 19.0595 16.1612 19.4462 16.5547 19.762C17.0854 20.187 17.7234 20.4734 18.4985 20.494" fill="#4C829A"/>
<path d="M18.5015 3.61294C17.5803 3.6336 16.6263 3.39451 15.8005 2.99012C14.9747 2.58573 14.298 1.98947 13.5795 1.46111C12.861 0.932742 12.2051 0.528351 11.3674 0.295162C10.5834 0.076732 9.75159 -1.37016e-05 8.93473 0.0147451C7.34574 0.0413109 5.86705 0.478171 4.68052 1.56147C3.5566 2.58868 2.91862 4.0498 2.89775 5.5611C2.87688 7.0724 3.4612 8.50695 4.55233 9.53416C5.73588 10.644 7.31295 11.2816 8.93473 11.379C9.84997 11.4351 10.7891 11.3111 11.6626 11.0307C12.4794 10.7709 13.1949 10.3252 13.976 9.98578C14.7571 9.64633 15.6008 9.56958 16.2745 10.1363C16.8499 10.6175 16.9334 11.3613 16.8797 12.0609C16.8141 12.9523 16.5607 13.8585 16.2745 14.7027C15.9496 15.665 15.398 16.5652 15.2639 17.5836C15.0105 19.4993 16.677 20.8719 18.5015 20.9516C19.1007 20.9781 19.1007 20.0542 18.5015 20.0277C17.7711 19.9952 17.0437 19.6794 16.5607 19.1244C16.0181 18.5016 16.1255 17.6692 16.3729 16.949C16.6501 16.1402 17.0466 15.3845 17.2971 14.564C17.5147 13.8555 17.6876 13.1235 17.7771 12.3885C17.9619 10.9126 17.4849 9.43085 15.9406 8.91724C14.3963 8.40364 12.9743 9.61091 11.5373 10.0979C9.98114 10.6234 8.23713 10.5997 6.73757 9.90018C5.41987 9.28621 4.35259 8.23539 3.97993 6.81854C3.60728 5.4017 3.89944 3.976 4.74611 2.85434C5.59278 1.73267 6.92837 1.05672 8.33551 0.962259C9.20901 0.903224 10.0974 0.926838 10.95 1.13936C11.8027 1.35189 12.5062 1.81532 13.2247 2.34368C14.0028 2.91632 14.7541 3.55095 15.6544 3.93173C16.5547 4.3125 17.5207 4.55455 18.4985 4.53389C19.0977 4.52208 19.1007 3.59523 18.4985 3.60999L18.5015 3.61294Z" fill="#4C829A"/>
<path d="M18.5015 5.33381C16.6889 5.34267 15.1208 5.13309 13.8359 4.11769C12.9653 3.42993 12.2171 2.55031 11.1915 2.08098C9.33422 1.23087 6.36491 2.01604 5.34533 3.82842C5.00547 4.43353 4.88623 5.14195 4.93094 5.83266C4.97566 6.52928 5.18733 7.22589 5.59576 7.79263C6.26653 8.72243 7.41729 9.23013 8.56208 9.36887C9.97816 9.54007 11.3883 9.24784 12.7596 8.91134C14.1191 8.5778 15.6067 8.15274 16.9811 8.65159C17.306 8.76966 17.625 8.94676 17.8337 9.22423C18.0632 9.52531 18.1437 9.91199 18.1974 10.2869C18.4836 12.2763 18.2421 14.3308 17.5743 16.2288C17.3835 16.7719 17.154 17.3239 17.1659 17.8994C17.1808 18.5695 17.5058 19.2602 18.4955 19.2336" fill="#4A606E"/>
<path d="M18.5015 4.87335C17.0645 4.8763 15.5709 4.75823 14.3516 3.92583C13.1323 3.09344 12.3244 1.92159 10.9083 1.48178C8.72903 0.802874 5.70606 1.77105 4.77592 3.94649C4.17669 5.34858 4.41817 7.12849 5.40794 8.30034C6.39771 9.47218 7.95391 9.87657 9.41471 9.88248C11.1498 9.88838 12.7716 9.30393 14.456 8.9999C15.243 8.85822 16.0986 8.80509 16.8588 9.10026C17.6846 9.422 17.7443 10.1895 17.8098 10.9717C17.9708 12.8756 17.619 14.6968 16.993 16.4885C16.7366 17.2176 16.5577 18.0264 16.8886 18.7614C17.1808 19.4078 17.8098 19.6971 18.4985 19.7C19.0977 19.7 19.1007 18.7761 18.4985 18.7761C16.9185 18.7761 17.9619 16.6036 18.1974 15.8362C18.6565 14.3367 18.8622 12.7427 18.7579 11.1783C18.7132 10.4935 18.6774 9.68766 18.3017 9.08846C17.9261 8.48925 17.2434 8.19998 16.5846 8.0642C15.0403 7.74836 13.5079 8.27967 12.0143 8.61617C10.5357 8.94972 8.89896 9.19767 7.4471 8.62208C5.99524 8.04648 5.30658 6.78609 5.39303 5.31611C5.53613 2.96061 8.40407 1.78286 10.485 2.32598C11.9517 2.70971 12.8282 4.08523 14.0684 4.84973C15.3861 5.66442 16.9811 5.80315 18.4985 5.8002C19.0977 5.8002 19.1007 4.87335 18.4985 4.8763L18.5015 4.87335Z" fill="#4C829A"/>
<path d="M18.5015 5.33381C20.2783 5.35448 21.8822 5.13309 23.1671 4.11769C24.0376 3.42993 24.7859 2.55031 25.8115 2.08098C27.6688 1.23087 30.6381 2.01604 31.6576 3.82842C31.9975 4.43353 32.1167 5.14195 32.072 5.83266C32.0273 6.52928 31.8156 7.22589 31.4072 7.79263C30.7364 8.72243 29.5857 9.23013 28.4409 9.36887C27.0248 9.54007 25.6147 9.24784 24.2433 8.91134C22.8839 8.5778 21.3963 8.15274 20.0219 8.65159C19.697 8.76966 19.378 8.94676 19.1693 9.22423C18.9397 9.52531 18.8592 9.91199 18.8056 10.2869C18.5194 12.2763 18.7609 14.3308 19.4286 16.2287C19.6194 16.7719 19.849 17.3239 19.8371 17.8994C19.8222 18.5695 19.372 19.2336 18.5075 19.2336" fill="#4A606E"/>
<path d="M18.5015 5.79725C19.8609 5.80905 21.2442 5.68803 22.4844 5.09178C23.7246 4.49552 24.5385 3.31777 25.728 2.64477C27.478 1.65593 30.3936 2.33188 31.3178 4.17673C31.9409 5.42533 31.6129 7.14915 30.5367 8.04944C29.4038 8.99695 27.788 9.06189 26.3868 8.87593C24.8217 8.66636 23.3191 8.0642 21.7361 7.97269C20.32 7.89004 18.7161 8.33871 18.4031 9.88543C18.0632 11.5709 18.1914 13.3774 18.5879 15.0392C18.7847 15.8686 19.1872 16.6627 19.3332 17.501C19.4406 18.1208 19.22 18.7496 18.5015 18.7732C17.9023 18.7938 17.8993 19.7177 18.5015 19.6971C19.1395 19.6764 19.7119 19.3989 20.0398 18.8411C20.3946 18.236 20.329 17.5128 20.1352 16.8693C19.9027 16.0841 19.5986 15.3314 19.4257 14.5256C19.2408 13.6725 19.1484 12.8018 19.1514 11.928C19.1514 11.5414 19.1723 11.1517 19.211 10.7651C19.2468 10.402 19.2766 9.98284 19.4495 9.64929C19.8013 8.96743 20.8567 8.87298 21.5334 8.88774C22.3681 8.9084 23.182 9.12683 23.9899 9.32755C24.7978 9.52827 25.6266 9.71128 26.4614 9.81164C27.9818 9.99465 29.6513 9.85001 30.9183 8.91725C32.1853 7.9845 32.71 6.44368 32.4954 4.93238C32.1376 2.38797 29.3114 1.03016 26.9205 1.31353C26.205 1.39913 25.5461 1.63527 24.9469 2.03376C24.2791 2.47947 23.7157 3.04916 23.1075 3.56572C21.7987 4.67558 20.165 4.88811 18.4955 4.87335C17.8933 4.86744 17.8933 5.79134 18.4955 5.79725H18.5015Z" fill="#4C829A"/>
<path d="M16.4474 9.69061C17.3567 10.4994 17.4879 11.3702 17.3627 12.3059C17.7144 12.4416 18.099 12.5154 18.4985 12.5154C18.898 12.5154 19.3064 12.4357 19.6701 12.2941C19.5688 11.379 19.6552 10.4905 20.171 9.94446C20.5913 9.5017 21.1011 9.29508 21.6586 9.2567C21.593 7.58601 20.2038 6.25182 18.4985 6.25182C16.7932 6.25182 15.4159 7.5742 15.3384 9.23604C15.7409 9.26556 16.1195 9.40134 16.4444 9.69061H16.4474Z" fill="#F3FAFC"/>
<path d="M16.1195 10.0153C16.8171 10.6529 17.0139 11.3879 16.8976 12.3029C16.8708 12.5125 17.0645 12.6837 17.2404 12.7486C18.0662 13.0468 18.9755 13.0438 19.7953 12.7339C19.9742 12.666 20.1591 12.5007 20.1382 12.2882C20.0815 11.7244 20.0458 11.0868 20.3051 10.5614C20.5645 10.036 21.1071 9.7585 21.6616 9.71423C21.9031 9.69356 22.1416 9.51941 22.1296 9.2508C22.0253 7.34397 20.4572 5.78249 18.5015 5.78249C16.5458 5.78249 14.9896 7.33216 14.8763 9.23014C14.8614 9.4958 15.1059 9.66995 15.3444 9.69356C15.6336 9.72308 15.8989 9.82934 16.1225 10.0124C16.5786 10.3961 17.2404 9.74374 16.7813 9.36002C16.355 9.00285 15.8989 8.8228 15.3444 8.76966L15.8124 9.23309C15.8989 7.83691 17.0854 6.70934 18.5045 6.71229C19.9235 6.71524 21.122 7.84872 21.1965 9.2567L21.6646 8.79328C20.8328 8.86412 20.0458 9.23309 19.5896 9.94742C19.1335 10.6617 19.1305 11.5118 19.211 12.2911L19.5539 11.8454C18.8682 12.1022 18.1825 12.1081 17.4938 11.8602L17.8367 12.3059C17.9798 11.1665 17.6429 10.1511 16.7843 9.36297C16.3431 8.95858 15.6813 9.61092 16.1255 10.0153H16.1195Z" fill="white"/>
<path d="M0.468056 16.3203C0.468056 16.3203 2.87689 18.1238 4.77295 18.6492C6.66901 19.1746 10.3598 19.1008 12.0024 18.2242C13.6451 17.3475 13.341 17.4242 13.341 17.4242C13.341 17.4242 12.1515 19.027 8.2103 19.1274C4.26614 19.2277 2.54895 18.2596 0.703573 17.0021L0.468056 16.3232V16.3203Z" fill="#4C829A" stroke="#4C829A" stroke-width="0.63" stroke-miterlimit="10"/>
<path d="M4.85344 25.4028C4.85344 25.4028 8.89002 25.5563 10.4343 24.4553C11.9756 23.3543 11.913 23.2392 12.7746 22.1884C13.5258 21.2704 13.9492 20.6505 13.9492 20.6505C13.9492 20.6505 11.9279 23.7528 10.1332 24.7564C8.32061 25.7688 7.11023 25.7275 5.25889 25.8544L4.85642 25.4058L4.85344 25.4028Z" fill="#4C829A" stroke="#4C829A" stroke-width="0.63" stroke-miterlimit="10"/>
<path d="M12.8789 30.6806C12.8789 30.6806 15.0582 28.7855 15.6395 27.1827C16.2209 25.5799 16.4236 22.9027 16.4236 22.9027C16.4236 22.9027 16.4236 26.3828 15.4636 28.0328C14.5037 29.6858 13.5467 30.8754 13.5467 30.8754L12.8789 30.6806Z" fill="#4C829A" stroke="#4C829A" stroke-width="0.63" stroke-miterlimit="10"/>
<path d="M36.5349 16.5062C36.5349 16.5062 34.1261 18.3098 32.23 18.8352C30.334 19.3606 26.6432 19.2868 25.0006 18.4101C23.3579 17.5334 23.662 17.6102 23.662 17.6102C23.662 17.6102 24.8515 19.213 28.7927 19.3133C32.7368 19.4137 34.454 18.4455 36.2994 17.1881L36.5349 16.5092V16.5062Z" fill="#4C829A" stroke="#4C829A" stroke-width="0.63" stroke-miterlimit="10"/>
<path d="M32.1466 25.5888C32.1466 25.5888 28.11 25.7423 26.5657 24.6413C25.0214 23.5403 25.087 23.4251 24.2254 22.3743C23.4742 21.4563 23.0508 20.8365 23.0508 20.8365C23.0508 20.8365 25.0721 23.9388 26.8668 24.9424C28.6794 25.9548 29.8898 25.9135 31.7411 26.0404L32.1436 25.5917L32.1466 25.5888Z" fill="#4C829A" stroke="#4C829A" stroke-width="0.63" stroke-miterlimit="10"/>
<path d="M24.1211 30.8665C24.1211 30.8665 21.9418 28.9715 21.3605 27.3687C20.7791 25.7659 20.5764 23.0886 20.5764 23.0886C20.5764 23.0886 20.5764 26.5688 21.5364 28.2188C22.4963 29.8718 23.4533 31.0613 23.4533 31.0613L24.1211 30.8665Z" fill="#4C829A" stroke="#4C829A" stroke-width="0.63" stroke-miterlimit="10"/>
</g>
<defs>
<clipPath id="clip0_14_2581">
<rect width="37" height="32" fill="white"/>
</clipPath>
</defs>
</svg>
