<svg width="37" height="32" viewBox="0 0 37 32" fill="none" xmlns="http://www.w3.org/2000/svg">
<g clip-path="url(#clip0_14_2609)">
<path d="M18.5015 31.5395C12.6285 31.4923 7.28016 29.0099 3.65498 23.8738C0.0298128 18.7378 0.232536 14.4223 0.757232 10.095C1.28491 5.76774 4.62388 2.12822 4.62388 2.12822C4.62388 2.12822 1.98252 5.25413 4.20949 8.43022C6.43647 11.6063 10.4403 10.9923 11.4181 10.6234C12.3959 10.2515 14.9658 8.37119 16.4474 9.68767C17.9291 11.0071 17.3448 12.483 16.9572 14.1419C16.5697 15.8008 15.6127 16.9136 15.7796 17.9851C15.9496 19.0565 16.1732 19.9126 18.0811 20.2815C19.9891 20.6505 20.7851 19.3724 21.2174 18.6492C21.6497 17.926 20.8239 16.3764 20.4393 15.2783C20.0547 14.1802 18.9964 11.1813 20.171 9.94152C21.3456 8.69883 23.2357 9.29509 24.9231 10.3902C26.6104 11.4853 31.1479 11.0307 32.7518 8.48631C34.3557 5.94189 33.512 3.5244 32.3761 2.12822C32.3761 2.12822 35.7151 5.76774 36.2398 10.095C36.7675 14.4223 36.9672 18.7348 33.342 23.8738C29.7169 29.0128 24.3715 31.4923 18.4955 31.5395" fill="#5D7261"/>
<path d="M18.5015 31.0761C15.7617 31.0466 13.025 30.4798 10.5684 29.2637C8.11192 28.0476 5.88196 26.1437 4.23334 23.8827C2.43268 21.4091 1.2223 18.5813 0.986785 15.5233C0.885424 14.2216 0.939086 12.9169 1.05833 11.6181C1.18951 10.219 1.38627 8.86413 1.88115 7.53879C2.56385 5.71461 3.63411 3.89928 4.95182 2.45882L4.29297 1.80648C3.1124 3.21742 2.53702 5.26299 3.03191 7.0429C3.72653 9.54304 6.08766 11.1193 8.60084 11.3613C9.42664 11.441 10.2822 11.3938 11.0902 11.2049C11.8981 11.016 12.542 10.5702 13.2545 10.2337C14.1757 9.79984 15.4189 9.32165 16.2566 10.1481C17.2643 11.1399 16.9006 12.4328 16.5995 13.646C16.4236 14.3603 16.203 15.0363 15.9078 15.7122C15.6574 16.2848 15.3801 16.8604 15.3116 17.4892C15.2192 18.3511 15.5411 19.4344 16.2238 20.0011C17.1301 20.7538 18.6893 21.0549 19.7953 20.6239C20.6152 20.3051 21.4469 19.4934 21.7272 18.6492C21.918 18.0795 21.7361 17.4301 21.5513 16.8841C21.3456 16.276 21.0773 15.6886 20.8626 15.0835C20.5138 14.0917 20.1799 13.0615 20.1114 12.0078C20.0815 11.5266 20.0845 10.9983 20.3081 10.5584C20.5705 10.0389 21.1518 9.7408 21.7212 9.71719C22.4248 9.68472 23.1194 9.93857 23.7395 10.2485C24.2702 10.5142 24.7412 10.8772 25.2957 11.0898C26.205 11.4381 27.2514 11.4735 28.2113 11.3702C29.3353 11.2492 30.4502 10.9363 31.4251 10.3607C33.8459 8.92907 34.7164 5.81497 33.6193 3.28826C33.3868 2.75104 33.0767 2.26695 32.71 1.80943L32.0512 2.46177C33.1602 3.67494 34.0605 5.15082 34.7432 6.63555C35.8671 9.07666 36.1235 11.8808 36.0639 14.5404C35.9327 20.3789 32.3851 25.9282 27.2901 28.8151C24.616 30.3293 21.5722 31.0466 18.5015 31.082C17.9023 31.0879 17.8993 32.0118 18.5015 32.0059C21.3933 31.9734 24.2612 31.3654 26.8579 30.0902C29.4545 28.8151 31.765 26.8108 33.506 24.4494C35.4229 21.8489 36.6721 18.8529 36.9404 15.6325C37.0507 14.2983 37 12.9553 36.8778 11.624C36.7406 10.1452 36.5439 8.69883 36.0222 7.2997C35.2828 5.32202 34.147 3.37977 32.713 1.80943C32.3016 1.35781 31.6875 2.0072 32.0541 2.46177C33.6372 4.4365 33.5656 7.53879 31.5116 9.18587C30.0448 10.3636 27.6807 10.827 25.8681 10.3046C25.4179 10.1747 25.0691 9.92086 24.6667 9.69062C24.0585 9.34232 23.3967 9.03533 22.705 8.8907C21.5125 8.63685 20.1114 8.93497 19.5091 10.095C19.0083 11.0602 19.1514 12.2439 19.366 13.2652C19.5807 14.2865 19.9056 15.2104 20.2783 16.1432C20.5049 16.7099 20.7881 17.3091 20.8656 17.9231C20.9193 18.3393 20.7255 18.6167 20.487 18.9414C19.8192 19.8506 18.8652 20.0365 17.7979 19.7502C17.3656 19.6351 16.9095 19.458 16.6293 19.092C16.3967 18.7879 16.3192 18.3806 16.2596 18.0116C16.1821 17.5157 16.349 17.0553 16.5369 16.6007C16.7903 15.9897 17.0794 15.3964 17.2792 14.7647C17.4789 14.133 17.634 13.46 17.7592 12.8077C17.8695 12.2262 17.9261 11.6388 17.8069 11.0543C17.5713 9.89725 16.5816 8.87889 15.3742 8.78148C13.5407 8.63094 12.1753 10.1039 10.4909 10.3902C8.6545 10.7001 6.58851 10.2662 5.23205 8.92907C4.27806 7.99041 3.71163 6.73591 3.80106 5.39582C3.86367 4.46896 4.2244 3.56868 4.72822 2.79532C4.79381 2.69496 4.86238 2.59755 4.93393 2.50014C5.00846 2.39388 4.8743 2.56803 4.96076 2.46472C5.33938 2.0131 4.71034 1.36372 4.30191 1.81238C3.10047 3.12591 2.11965 4.71101 1.39521 6.32267C0.775118 7.70409 0.411409 9.11208 0.241479 10.6116C0.0775115 11.9428 -0.0298127 13.2888 0.00894326 14.6378C0.178873 20.7568 3.89646 26.5806 9.2418 29.6091C12.0561 31.203 15.2698 31.9675 18.5015 32C19.1037 32.0059 19.1037 31.082 18.5015 31.0761Z" fill="#5D7261"/>
<path d="M18.5015 4.07637C19.1842 4.10294 19.8878 3.9583 20.5317 3.74873C21.1816 3.53915 21.7212 3.28825 22.2668 2.88682C22.8869 2.43224 23.504 1.97472 24.1241 1.52015C25.4627 0.534265 27.2484 0.380773 28.909 0.522458C30.6082 0.667094 32.2032 1.70021 33.0201 3.18199C34.0367 5.02684 33.8101 7.46794 32.3374 8.9999C31.2611 10.1216 29.7556 10.7857 28.2054 10.9097C26.9771 11.0071 25.728 10.771 24.61 10.2544C23.7157 9.8382 22.8451 9.23309 21.8584 9.2508C21.2144 9.26261 20.5794 9.56369 20.165 10.0537C19.369 10.9953 19.6612 12.4417 19.9146 13.5368C20.1143 14.4016 20.4065 15.2724 20.7791 16.0812C21.1518 16.89 21.4231 17.6928 21.271 18.4544C21.1518 19.0595 20.8418 19.4462 20.4482 19.762C19.9176 20.1871 19.2915 20.4822 18.5045 20.494" fill="#555950"/>
<path d="M18.5015 4.53684C19.378 4.55751 20.2515 4.36269 21.0653 4.04685C21.8792 3.73101 22.5142 3.27349 23.1969 2.77169C23.8796 2.26989 24.5057 1.71791 25.2748 1.39322C25.9844 1.09509 26.7625 0.971121 27.5257 0.944555C29.0044 0.891423 30.4413 1.14527 31.5801 2.14297C32.719 3.14066 33.2347 4.45715 33.1691 5.8858C33.0171 9.09436 29.5678 10.8743 26.6164 10.3902C25.7876 10.2544 25.0274 9.95922 24.2851 9.57844C23.5427 9.19767 22.8511 8.8405 22.0372 8.79328C21.286 8.749 20.5228 9.04418 19.9861 9.56073C19.4495 10.0773 19.2408 10.7208 19.1872 11.4115C19.1275 12.2055 19.3064 13.0172 19.4913 13.7876C19.7148 14.7056 20.0487 15.5735 20.4274 16.4354C20.7762 17.2323 21.0981 18.2507 20.5257 19.0241C20.0666 19.6469 19.2617 20.004 18.5015 20.0306C17.9023 20.0513 17.8993 20.9752 18.5015 20.9545C20.004 20.9014 21.5722 19.9007 21.754 18.3334C21.8613 17.4124 21.4887 16.5475 21.122 15.724C20.7553 14.9005 20.5079 14.071 20.3141 13.215C20.1561 12.5066 19.9981 11.7303 20.1859 11.013C20.3737 10.2957 20.9968 9.78507 21.7391 9.71718C22.6066 9.63748 23.4056 10.1806 24.145 10.5466C24.929 10.9333 25.7548 11.2019 26.6253 11.32C29.7884 11.7509 33.4345 9.98283 34.0128 6.64735C34.2692 5.17442 33.9621 3.60409 33.0618 2.39092C32.1615 1.17774 30.7722 0.312879 29.2488 0.100352C27.4958 -0.144644 25.4686 0.0265582 23.981 1.05377C23.1373 1.63527 22.3622 2.35254 21.4618 2.85434C20.5615 3.35614 19.5121 3.63951 18.4985 3.61589C17.8963 3.60409 17.8963 4.52799 18.4985 4.53979L18.5015 4.53684Z" fill="#5D7261"/>
<path d="M18.5015 4.07636C17.8188 4.10292 17.1152 3.95829 16.4713 3.74871C15.8214 3.53914 15.2818 3.28824 14.7362 2.8868C14.1161 2.43223 13.499 1.97471 12.8789 1.52014C11.5403 0.53425 9.75457 0.380758 8.09403 0.522442C6.39473 0.667079 4.79977 1.70019 3.98292 3.18198C2.96632 5.02682 3.19289 7.46793 4.66562 8.99989C5.74184 10.1216 7.24736 10.7857 8.7976 10.9097C10.0259 11.0071 11.275 10.7709 12.393 10.2544C13.2873 9.83819 14.1578 9.23308 15.1446 9.25079C15.7886 9.2626 16.4236 9.56368 16.838 10.0537C17.634 10.9953 17.3418 12.4416 17.0884 13.5367C16.8886 14.4016 16.5965 15.2724 16.2238 16.0812C15.8691 16.8545 15.5799 17.6928 15.7319 18.4544C15.8512 19.0595 16.1612 19.4462 16.5547 19.762C17.0854 20.187 17.7234 20.4734 18.4985 20.494" fill="#555950"/>
<path d="M18.5015 3.61294C17.5803 3.6336 16.6263 3.39451 15.8005 2.99012C14.9747 2.58573 14.298 1.98947 13.5795 1.46111C12.861 0.932742 12.2051 0.528351 11.3674 0.295162C10.5834 0.076732 9.75159 -1.37016e-05 8.93473 0.0147451C7.34574 0.0413109 5.86705 0.478171 4.68052 1.56147C3.5566 2.58868 2.91862 4.0498 2.89775 5.5611C2.87688 7.04878 3.4612 8.50695 4.55233 9.53416C5.73588 10.644 7.31295 11.2816 8.93473 11.379C9.84997 11.4351 10.7891 11.3111 11.6626 11.0307C12.4794 10.7709 13.1949 10.3252 13.976 9.98578C14.7571 9.64633 15.6008 9.56958 16.2745 10.1363C16.8499 10.6175 16.9334 11.3613 16.8797 12.0609C16.8141 12.9523 16.5607 13.8585 16.2745 14.7027C15.9496 15.665 15.398 16.5652 15.2639 17.5836C15.0105 19.4993 16.677 20.8719 18.5015 20.9516C19.1007 20.9781 19.1007 20.0542 18.5015 20.0277C17.7711 19.9952 17.0437 19.6794 16.5607 19.1244C16.0181 18.5016 16.1255 17.6692 16.3729 16.949C16.6501 16.1402 17.0467 15.3845 17.2971 14.564C17.5147 13.8555 17.6876 13.1235 17.7771 12.3885C17.9619 10.9126 17.4849 9.43085 15.9406 8.91724C14.3963 8.40364 12.9743 9.61091 11.5373 10.0979C9.98115 10.6234 8.23713 10.5997 6.73757 9.90018C5.41987 9.28621 4.35259 8.23539 3.97994 6.81854C3.60728 5.4017 3.89944 3.976 4.74611 2.85434C5.59278 1.73267 6.92837 1.05672 8.33551 0.962259C9.20901 0.903224 10.0974 0.926838 10.95 1.13936C11.8027 1.35189 12.5062 1.81532 13.2247 2.34368C14.0028 2.91632 14.7541 3.55095 15.6544 3.93173C16.5547 4.3125 17.5207 4.55455 18.4985 4.53389C19.0977 4.52208 19.1007 3.59523 18.4985 3.60999L18.5015 3.61294Z" fill="#5D7261"/>
<path d="M30.8318 10.278C30.9243 10.1954 31.0077 10.1068 31.0942 10.0212C31.8932 8.68407 31.0614 7.03109 29.7646 5.94484C28.0742 4.53095 25.9695 4.3686 22.6215 5.08588C20.651 5.50798 18.5015 6.89531 18.5015 6.89531C18.5015 6.89531 15.0731 4.09409 10.5774 4.74347C6.0817 5.39286 5.65837 6.73296 5.23802 8.26492C5.09193 8.79328 5.2082 9.32755 5.65241 9.86772C7.86149 11.382 10.6311 10.9245 11.4211 10.6234C12.3989 10.2515 14.9687 8.37118 16.4504 9.68767C17.9321 11.0071 17.3478 12.483 16.9602 14.1419C16.5726 15.8008 15.6157 16.9136 15.7826 17.9851C15.9525 19.0565 16.1761 19.9126 18.0841 20.2815C19.9891 20.6505 20.7881 19.3724 21.2204 18.6492C21.6526 17.926 20.8268 16.3763 20.4423 15.2783C20.0577 14.1802 18.9994 11.1813 20.174 9.94152C21.3486 8.69883 23.2387 9.29508 24.926 10.3902C26.1752 11.2019 28.8046 11.379 30.8229 10.281C30.8229 10.281 30.8289 10.278 30.8289 10.2751L30.8318 10.278Z" fill="#9CCE88"/>
<path d="M31.1598 10.6027C32.1823 9.64634 31.9677 8.11438 31.3029 7.01337C30.6917 5.99797 29.7198 5.16853 28.6228 4.70215C27.5257 4.23577 26.4256 4.15312 25.2987 4.22101C23.8766 4.30661 22.4039 4.55751 21.0773 5.07407C20.1024 5.45485 19.1454 5.92418 18.266 6.49091L18.8324 6.56175C17.6757 5.6231 16.2179 4.9619 14.7869 4.56932C13.4185 4.19445 11.9875 4.08228 10.5774 4.27414C9.32229 4.44534 8.01652 4.69624 6.88365 5.28364C6.21884 5.62605 5.6375 6.1308 5.27975 6.78904C4.922 7.44728 4.61196 8.33576 4.74909 9.07075C4.8117 9.40134 4.96374 9.71423 5.1605 9.98579C5.40198 10.3193 5.78656 10.5112 6.15325 10.6883C6.77037 10.9864 7.42922 11.1872 8.11192 11.2905C9.15535 11.4469 10.2733 11.4322 11.2959 11.1429C12.9117 10.6883 15.2818 8.46564 16.6144 10.5732C17.2881 11.6358 16.7634 13.032 16.4772 14.1389C16.2984 14.8355 15.9943 15.4849 15.714 16.1461C15.4905 16.6715 15.2669 17.2324 15.2967 17.8139C15.3474 18.7141 15.6663 19.6262 16.4415 20.1546C17.4402 20.8365 18.9666 21.0342 20.0637 20.5C20.49 20.2933 20.8447 19.9657 21.1339 19.5997C21.3873 19.2779 21.6765 18.9031 21.7689 18.4987C21.9031 17.9113 21.6944 17.2678 21.4976 16.7188C21.2889 16.1373 21.0385 15.5735 20.8358 14.989C20.3379 13.5515 19.0739 9.82345 21.7242 9.70538C22.4039 9.67586 23.0836 9.912 23.6858 10.2072C24.288 10.5024 24.8098 10.9067 25.4358 11.1429C26.6462 11.5975 28.0444 11.6004 29.2965 11.3259C29.9106 11.1901 30.6619 10.9864 31.1628 10.5939C31.6338 10.2249 30.969 9.5755 30.5039 9.94152C30.3191 10.0862 29.9136 10.1895 29.6721 10.2662C29.3382 10.3725 28.9984 10.4551 28.6526 10.5083C28.0325 10.6057 27.3796 10.6145 26.7595 10.523C26.2437 10.4463 25.719 10.3105 25.2689 10.0448C24.6488 9.68176 24.0525 9.3187 23.3728 9.07075C22.2012 8.64569 20.8149 8.62208 19.8878 9.56664C19.1395 10.3282 19.1037 11.4705 19.2319 12.4653C19.3601 13.46 19.6493 14.4046 19.9772 15.3403C20.1799 15.9218 20.4363 16.4826 20.639 17.0641C20.7791 17.4714 21.0147 18.0411 20.7911 18.4544C20.3975 19.1864 19.7447 19.8329 18.8652 19.8742C17.9857 19.9155 16.7575 19.6056 16.4236 18.6905C16.2924 18.3334 16.194 17.8935 16.2417 17.5128C16.3133 16.9726 16.5905 16.456 16.8022 15.9601C17.3179 14.7706 17.7085 13.4571 17.8486 12.1642C17.9768 10.9628 17.4849 9.70242 16.3997 9.0678C15.4606 8.51582 14.3069 8.77852 13.3589 9.1652C12.5867 9.48104 11.8355 10.0153 11.0723 10.2367C10.1421 10.5053 9.09274 10.526 8.14471 10.3577C7.4799 10.2367 6.83595 10.0242 6.25163 9.68471C5.66731 9.34526 5.56893 8.78443 5.73886 8.18227C5.89389 7.63619 6.06083 7.15506 6.42454 6.75657C6.97011 6.15736 7.76013 5.84448 8.52631 5.6231C9.84699 5.23642 11.2541 5.02094 12.6285 5.11835C14.5365 5.25413 16.4295 5.97435 17.9857 7.07241C18.0513 7.11668 18.1139 7.16391 18.1765 7.21114C18.0454 7.11373 18.1378 7.18162 18.1706 7.20819C18.3256 7.33512 18.5522 7.40005 18.737 7.27903C20.4303 6.18983 22.2817 5.51978 24.2791 5.23937C26.2855 4.956 28.3336 5.11539 29.8242 6.61489C30.6082 7.40301 31.5235 8.97924 30.5009 9.93561C30.0627 10.3459 30.7245 10.9982 31.1598 10.588V10.6027Z" fill="#9CCE88"/>
<path d="M18.5015 8.3092C18.5015 8.3092 16.0241 6.78609 13.4334 6.70639C10.8427 6.6267 8.16856 7.61554 7.54846 7.96384L6.92837 8.31215C6.92837 8.31215 7.98074 7.75132 9.5757 7.37644C11.1677 7.00157 12.1485 6.73591 14.0297 6.94844C15.9108 7.16097 18.5045 8.57781 18.5045 8.57781V8.3092H18.5015Z" fill="#5D7261" stroke="#5D7261" stroke-width="0.03" stroke-miterlimit="10"/>
<path d="M18.5015 8.3092C18.5015 8.3092 20.9789 6.78609 23.5696 6.70639C26.1603 6.6267 28.8344 7.61554 29.4545 7.96384L30.0746 8.31215C30.0746 8.31215 29.0222 7.75132 27.4273 7.37644C25.8353 7.00157 24.8545 6.73591 22.9733 6.94844C21.0922 7.16097 18.4985 8.57781 18.4985 8.57781V8.3092H18.5015Z" fill="#5D7261" stroke="#5D7261" stroke-width="0.03" stroke-miterlimit="10"/>
<path d="M18.3733 8.50992C18.3733 8.50992 18.2719 13.1501 18.2898 15.3373C18.3077 17.5246 18.4985 20.0838 18.4985 20.0838C18.4985 20.0838 18.4627 18.5666 18.4985 15.3108C18.5343 12.055 18.6237 8.50992 18.6237 8.50992H18.3703H18.3733Z" fill="#5D7261" stroke="#5D7261" stroke-width="0.03" stroke-miterlimit="10"/>
</g>
<defs>
<clipPath id="clip0_14_2609">
<rect width="37" height="32" fill="white"/>
</clipPath>
</defs>
</svg>
